<svg width="22" height="22" fill="none" xmlns="http://www.w3.org/2000/svg"><path fill-rule="evenodd" clip-rule="evenodd" d="M11 2.127c2.892 0 3.231.013 4.374.065 1.057.047 1.629.223 2.011.373.507.198.868.43 1.246.808.378.378.615.74.808 1.246.146.383.327.954.374 2.011.052 1.143.064 1.483.064 4.374 0 2.892-.012 3.232-.064 4.375-.047 1.057-.223 1.628-.374 2.01a3.36 3.36 0 01-.808 1.247 3.306 3.306 0 01-1.246.808c-.382.146-.954.326-2.01.373-1.144.052-1.483.065-4.375.065s-3.231-.013-4.374-.065c-1.057-.047-1.629-.223-2.011-.373a3.36 3.36 0 01-1.246-.808 3.307 3.307 0 01-.808-1.246c-.146-.383-.327-.954-.374-2.011-.051-1.143-.064-1.483-.064-4.375 0-2.891.013-3.23.064-4.374.047-1.057.224-1.628.374-2.01a3.36 3.36 0 01.808-1.247 3.316 3.316 0 011.246-.808c.382-.146.954-.326 2.01-.373C7.77 2.135 8.109 2.127 11 2.127zm0-1.95c-2.939 0-3.309.012-4.464.064C5.384.292 4.598.477 3.91.743a5.276 5.276 0 00-1.916 1.25A5.369 5.369 0 00.744 3.91C.476 4.598.291 5.384.24 6.54.189 7.69.176 8.06.176 11s.013 3.309.065 4.465c.051 1.151.236 1.937.502 2.63a5.275 5.275 0 001.25 1.916 5.369 5.369 0 001.917 1.25c.688.266 1.474.451 2.63.503 1.156.051 1.521.064 4.464.064 2.944 0 3.309-.013 4.465-.064 1.151-.052 1.938-.237 2.63-.503a5.275 5.275 0 001.916-1.25 5.368 5.368 0 001.25-1.917c.267-.687.451-1.474.503-2.63.052-1.155.064-1.52.064-4.464 0-2.943-.012-3.309-.064-4.464-.052-1.152-.236-1.938-.503-2.63a5.275 5.275 0 00-1.25-1.916A5.368 5.368 0 0018.099.74c-.688-.267-1.474-.452-2.63-.504-1.16-.047-1.53-.06-4.469-.06zm0 5.263a5.561 5.561 0 000 11.12A5.564 5.564 0 0016.56 11 5.564 5.564 0 0011 5.44zm0 9.17a3.609 3.609 0 110-7.218 3.609 3.609 0 010 7.218zm7.077-9.39a1.298 1.298 0 11-2.596 0 1.298 1.298 0 012.596 0z" fill="#D4D7E6"/></svg>