<svg width="48" height="48" fill="none" xmlns="http://www.w3.org/2000/svg"><path d="M24 44.438c-11.287 0-20.438-9.15-20.438-20.438 0-11.287 9.15-20.438 20.438-20.438 11.287 0 20.438 9.15 20.438 20.438.006 11.281-9.134 20.431-20.416 20.438H24zm0-26.77A6.332 6.332 0 1030.332 24 6.339 6.339 0 0024 17.668z" fill="#FFE145"/><path d="M24 48C10.735 48 0 37.266 0 24S10.734 0 24 0s24 10.734 24 24-10.734 24-24 24zm0-46.5C11.564 1.5 1.5 11.563 1.5 24S11.563 46.5 24 46.5 46.5 36.437 46.5 24 36.437 1.5 24 1.5zm0 29.582A7.082 7.082 0 1131.082 24 7.09 7.09 0 0124 31.082zm0-12.663a5.582 5.582 0 105.582 5.582V24A5.588 5.588 0 0024 18.418v.001z" fill="#B79C10"/><path d="M28.57 12.502v-1.604a.75.75 0 00-1.5 0v1.604a.75.75 0 001.5 0zm6.924-1.305V9.594a.75.75 0 00-1.5 0v1.603a.75.75 0 001.5 0zm.996 10.968v-1.603a.75.75 0 10-1.5 0v1.603a.75.75 0 001.5 0zm-5.988 18.592v-1.603a.75.75 0 00-1.5 0v1.603a.75.75 0 001.5 0zm-6.552-4.782v-1.603a.75.75 0 00-1.5 0v1.603a.75.75 0 101.5 0zm-6.198 3.431v-1.603a.75.75 0 00-1.5 0v1.603a.75.75 0 001.5 0zm23.795-9.759v-1.603a.75.75 0 10-1.5 0v1.603a.75.75 0 001.5 0zm-7.829 2.708v-1.603a.75.75 0 00-1.5 0v1.603a.75.75 0 001.5 0zM14.97 18.763V17.16a.75.75 0 00-1.5 0v1.603a.75.75 0 101.5 0zm3.35-10.262V6.9a.75.75 0 00-1.5 0v1.602a.75.75 0 101.5 0zM7.563 24.5v-1.602a.75.75 0 10-1.5 0V24.5a.75.75 0 001.5 0zm6.98 7.11v-1.602a.75.75 0 10-1.5 0v1.603a.75.75 0 001.5 0z" fill="#B79C10"/></svg>