<svg width="48" height="48" fill="none" xmlns="http://www.w3.org/2000/svg"><path d="M11.968 30.367v-1.305a8.072 8.072 0 018.063-8.063h3.818c5.75 0 10.582 4.005 11.856 9.375l-23.737-.007z" fill="#FFE145"/><path d="M48 32.43h-8.424a15.75 15.75 0 00-3.338-8.96 4.804 4.804 0 00-.027-2.633l2.472-2.472a2.65 2.65 0 101.561-4.764 2.65 2.65 0 10-4.764 1.56l-2.47 2.47a4.772 4.772 0 00-4.09.656 15.72 15.72 0 00-5.048-.829H20.03c-6.418.008-11.618 5.208-11.625 11.625v3.347H0v1.5h6.551l3.438 3.157h28.022l3.438-3.157H48v-1.5zM37.732 15.031l-.77-.506a1.15 1.15 0 111.445-.15l1.062 1.062a1.15 1.15 0 11-.148 1.445l-.507-.77-3.301 3.303a4.76 4.76 0 00-1.082-1.082l3.3-3.302zM9.906 29.082c.006-5.589 4.535-10.118 10.125-10.125h3.843a14.222 14.222 0 013.765.504l-2.215 2.213 1.06 1.06 2.844-2.843a3.271 3.271 0 014.625 4.627L31.11 27.36l1.06 1.06 2.844-2.843c.179-.18.343-.373.492-.578a14.25 14.25 0 012.567 7.43H9.906v-3.348zm27.52 6.504H10.574L8.77 33.929h30.462l-1.804 1.657z" fill="#B79C10"/><path d="M12.968 28.395a1.031 1.031 0 102.063 0 1.031 1.031 0 00-2.063 0zm4.93 0a1.031 1.031 0 102.063 0 1.031 1.031 0 00-2.063 0zm-2.465-3.715a1.031 1.031 0 102.062 0 1.031 1.031 0 00-2.062 0z" fill="#B79C10"/></svg>