<svg width="151" height="32" fill="none" xmlns="http://www.w3.org/2000/svg"><path fill-rule="evenodd" clip-rule="evenodd" d="M62.186.08a2.064 2.064 0 00-.487-.08h-1.137c-.487.16-.974.322-1.461.643-2.11 1.125-2.598 3.537-1.136 5.466a7.66 7.66 0 001.623 1.608c.406.321.853.643 1.3.964.446.322.892.643 1.298.965.812.643 1.461 1.447 1.786 2.572.325 1.447-.162 2.733-1.624 3.376-1.299.482-2.435.482-3.734-.16a3.17 3.17 0 01-1.461-1.448c-.088-.174-.129-.395-.173-.638a4.565 4.565 0 00-.152-.648c0-.321 0-.482.162-.482l.163.16c.487.805 1.786 1.126 2.598.483.811-.482 1.136-1.93.487-2.733-1.137-1.608-3.735-1.286-4.547.322-.487.804-.487 1.768-.162 2.572.325 1.929 1.461 3.215 3.247 3.858 1.949.804 3.897.483 5.845-.482 2.111-1.125 3.085-3.215 2.923-5.627-.162-1.447-.974-2.733-1.786-3.537-.411-.407-.888-.75-1.388-1.11-.29-.208-.587-.422-.885-.658l-1.949-1.447a3.496 3.496 0 01-.811-1.286c-.163-.965.324-1.447 1.136-1.447.812.16 1.462.482 1.949.965.487.482.811.964.974 1.447.035.035.063.07.088.102.09.113.145.184.399.058.081-.08.203-.12.325-.16.121-.04.243-.08.324-.161.163 0 .163-.161.163-.322-.163-.482-.284-.964-.406-1.447A19.215 19.215 0 0065.27.322c0-.161-.325-.322-.487-.161l-.325.321c-.325.322-.487.322-.65.161-.162-.08-.365-.16-.568-.241a7.481 7.481 0 01-.568-.241c-.162 0-.325-.04-.487-.08zm3.897 10.852c0 .643 0 1.286-.325 1.768-.162-1.125-.487-2.09-1.136-2.893a10.47 10.47 0 00-.731-.643 10.06 10.06 0 01-.73-.644c-.488-.401-.975-.763-1.462-1.125a35.549 35.549 0 01-1.461-1.125c-.487-.483-.975-.965-1.3-1.447-.324-.643-.486-1.286 0-2.09v.322c.163.803.65 1.286 1.137 1.768.812.482 1.624 1.125 2.436 1.768.974.643 1.786 1.286 2.435 2.09.65.643.974 1.286 1.137 2.25zM151 10.45V7.555c0-.481 0-.803-.162-1.124-.325-1.93-.975-3.376-2.436-4.663-1.136-.803-2.273-1.446-3.734-1.607C144.181 0 143.856 0 143.531 0h-.812c-.324 0-.649 0-.974.16-2.922.483-4.871 2.09-5.845 4.824-.487 1.286-.487 2.572-.487 4.019 0 1.286.162 2.411.649 3.537.812 2.09 2.273 3.697 4.547 4.34 1.623.483 3.247.483 4.871.161 1.298-.322 2.597-.965 3.572-2.09 1.136-1.286 1.623-2.733 1.948-4.501zm-11.366.964c0-.964 0-1.768-.162-2.733.079-.623.119-1.245.159-1.85v-.003c.042-.643.082-1.265.166-1.844.162-.643.324-1.286.649-1.769.65-1.286 1.624-1.768 2.923-1.768 1.136.16 2.111.643 2.598 1.608.324.643.487 1.446.649 2.25.162 2.09.162 4.02 0 6.11 0 .803-.325 1.768-.649 2.571-.487.965-1.137 1.608-2.273 1.769-1.624.321-2.761-.322-3.41-1.93-.325-.803-.65-1.607-.65-2.41zm9.255.965c-.325.804-.812 1.447-1.461 2.09.162-.643.325-1.286.325-1.608.324-1.447.487-2.733.487-4.18-.163-1.929-.325-3.537-.974-5.305 0-.08-.041-.16-.082-.241-.04-.08-.081-.16-.081-.241a.56.56 0 00-.081-.241.561.561 0 01-.081-.242c.081 0 .122.04.162.08.041.041.081.081.163.081.649.483 1.136 1.126 1.461 1.93.649 1.607.974 3.215.812 4.983 0 .965-.163 1.93-.65 2.894zM138.011 8.52c0 2.09.162 4.18 1.136 6.27-.649-.643-1.136-1.125-1.461-1.768-.487-.965-.649-2.09-.812-3.215-.162-1.126-.162-2.09 0-3.055.325-1.447.812-2.894 1.949-4.019l.324-.322c0-.16.163-.16.163-.16-.975 2.09-1.299 4.18-1.299 6.27zM0 .482c.162-.16.325-.16.487-.16h6.008c.324 0 .487.16.487.482v.643c0 .16 0 .16-.325.16h-.65c-.162 0-.324.161-.324.322v13.182c0 .162.162.322.325.322h.649c.325 0 .325.161.325.322v.643c0 .321-.163.482-.487.482H.487c-.162 0-.325 0-.487-.16v-.804c.162-.161.325-.161.65-.161h.324c.487 0 .65 0 .65-.643V2.09c-.163-.322-.325-.482-.65-.482H.487c-.162.16-.325 0-.487-.161V.482zm2.923 15.112H4.22V1.768H2.923v13.826zm61.211 15.433v.161h.325c.162-.16.162-.16.162-.321v-6.109c0-.16 0-.241-.04-.281-.04-.04-.121-.04-.284-.04h-.65c-.163 0-.244 0-.284.04-.04.04-.04.12-.04.28v3.698l-.163-.16-.389-.434c-1.141-1.273-2.178-2.43-3.345-3.586-.163-.16-.325-.16-.487-.16-.163 0-.163.16-.163.321v6.109c0 .322.163.322.325.322h.65c.324 0 .324 0 .324-.322v-3.858c1.462 1.447 2.76 2.893 4.06 4.34zm44.001 0c-.324-.482-.649-.803-1.136-1.286-.851-.842-1.577-1.684-2.396-2.633l-.255-.295-.109-.126s0-.161-.163-.161v4.02c0 .16 0 .24-.04.28-.04.04-.122.04-.284.04h-.65c-.162 0-.325 0-.325-.32v-6.111c0-.16 0-.321.163-.321.162 0 .324 0 .487.16a83.777 83.777 0 011.867 1.93 83.583 83.583 0 001.867 1.929l.163.16v-3.858c0-.321 0-.321.324-.321h.65c.162 0 .325 0 .325.321v6.431h-.488v.161zm-63.89-.08c.08.04.162.08.243.08v-.16h.65c.324 0 .649-.161.974-.322.812-.643 1.299-1.447 1.299-2.411v-3.698c0-.16 0-.24-.04-.28-.04-.041-.122-.041-.285-.041h-.65c-.162 0-.244 0-.284.04-.04.04-.04.12-.04.281v3.858c0 .643-.325 1.126-.812 1.287-.487.16-1.137.16-1.461-.322-.163-.322-.325-.643-.325-1.125v-3.698c0-.16 0-.24-.04-.28-.04-.041-.122-.041-.285-.041h-.65c-.324 0-.324.16-.324.321v3.858c0 1.126.812 2.251 1.786 2.573a.58.58 0 01.244.08zm7.55.08a1.21 1.21 0 01-.406-.08c-.122-.04-.244-.08-.406-.08-1.461-.483-2.436-2.09-2.273-3.698.162-1.447 1.46-2.733 2.922-2.894.974-.16 1.949.161 2.76.804.163.16.163.322 0 .482l-.487.483c-.162.16-.324.16-.487 0-.65-.483-1.461-.643-2.273-.322-.974.482-1.299 1.608-1.136 2.572.324.965 1.136 1.608 2.273 1.608.487 0 .812-.16 1.136-.482.163-.161.325-.161.487 0l.487.482c.082.08.122.12.122.16 0 .041-.04.081-.122.162-.487.482-.974.643-1.623.803h-.974zm-14.045-.16c.203.04.406.08.568.16v.161h1.299c.65-.16 1.137-.321 1.624-.804.162-.16.162-.321 0-.482l-.487-.482c-.163-.161-.325-.161-.487 0-.488.482-.975.643-1.624.482-.812-.16-1.624-.804-1.786-1.608-.162-.964.162-1.929.812-2.411.812-.482 1.786-.482 2.598.16.162.162.162.162.324 0l.487-.482c.095-.187.135-.265.119-.33-.012-.046-.051-.085-.119-.152-.811-.643-1.786-.965-2.76-.804-1.461.161-2.598 1.447-2.922 2.894-.325 1.447.487 2.894 1.786 3.537.162.08.365.12.568.16zM48.385 12.86h-4.222c-.162 0-.162 0-.162.16-.081.403-.162.764-.243 1.126-.082.362-.163.724-.244 1.126 0 .321 0 .482.325.482h.65c.324 0 .324.16.324.482v.643c0 .16-.163.322-.325.322h-3.572c-.162 0-.325-.161-.325-.322v-.804c0-.16.163-.321.325-.321h.65c.487 0 .487 0 .487-.482.162-.804.365-1.648.568-2.492.203-.844.406-1.688.568-2.492.325-1.366.65-2.692.974-4.018.325-1.327.65-2.653.975-4.02 0-.32 0-.482-.325-.482-.487 0-.487-.16-.487-.643V.804c0-.322.162-.482.487-.482h4.871c.325 0 .487.16.487.321l.38 1.646v.006l.001.002V2.3c.682 2.945 1.345 5.812 1.892 8.794.325 1.447.65 2.893.974 4.18 0 .321.163.321.487.321h.487c.325 0 .325.16.325.482v.643c0 .322-.162.483-.325.483h-6.17c-.324 0-.487 0-.487-.483v-.643c0-.321.163-.321.325-.321h.65c.324 0 .324-.16.324-.322-.091-.543-.234-1.035-.37-1.504a13.362 13.362 0 01-.28-1.068zm-.812-11.093c.974 4.663 1.948 9.325 2.923 13.826h1.46c-.548-2.627-1.149-5.255-1.743-7.853v-.003c-.46-2.012-.916-4.006-1.341-5.97h-1.299zm-1.136 1.769c-.65 2.572-1.3 5.305-1.949 8.038h3.734c-.649-2.733-1.298-5.466-1.785-8.038zm-11.69 8.52v-.321a6.11 6.11 0 001.948-.322 5.056 5.056 0 002.922-1.447c1.137-1.125 1.624-2.411 1.624-3.858 0-2.25-.974-4.02-3.085-4.984C37.019.643 35.72.322 34.422.322h-5.034c-.162 0-.325.16-.325.321v.643c0 .235.087.299.198.379.04.029.084.06.127.103h.65c.324 0 .487.161.487.483v12.7c0 .322-.163.482-.487.482h-.488c-.162 0-.324.161-.324.483v.643c0 .16 0 .321.325.321h6.332c.162 0 .325-.16.325-.321v-.643c0-.161 0-.322-.325-.322h-.65c-.325 0-.487-.16-.487-.482v-3.055zm0-1.607V1.768c.649 0 1.136 0 1.623.322 1.136.321 1.948.804 2.76 1.608.65.803.812 1.768.812 2.733 0 .482-.163 1.125-.325 1.607-.325.804-.812 1.286-1.623 1.769-.975.482-2.111.643-3.248.643zm-2.761-8.682h1.299v13.826h-1.299V1.768zm85.242 8.039c0 .482.041 1.004.081 1.527.041.523.081 1.045.081 1.527s.163 1.125.487 1.608c.487.804 1.137 1.286 1.949 1.447.974.16 1.786 0 2.598-.483.487-.321.811-.803 1.136-1.286.163-.321.163-.643-.162-.804 0 0-.163-.16-.325-.16-.812-.322-1.136-1.126-.974-1.93.162-.803.974-1.286 1.786-1.286s1.461.643 1.624 1.447c.162.643 0 1.447-.163 2.09-.162.965-.649 1.769-1.299 2.572-.812.804-1.623 1.126-2.598 1.287-1.948.16-3.572-.322-5.195-1.447-1.137-.965-1.949-2.251-2.436-3.698-.812-2.733-.812-5.305.325-7.877.812-2.09 2.435-3.376 4.546-4.02 1.462-.321 2.923-.16 4.222.322.324.16.487.16.649-.16l.325-.322c.162-.161.325 0 .487.16.162.965.325 1.93.649 2.894 0 .161 0 .322-.324.483-.081 0-.203.04-.325.08a1.27 1.27 0 01-.325.08c-.162 0-.324 0-.487-.16 0-.189-.056-.322-.102-.432-.032-.078-.06-.145-.06-.211-.487-1.126-1.461-1.608-2.598-1.608-.974 0-1.624.482-2.111 1.125-.649.804-.812 1.769-.974 2.733-.081.482-.122.965-.162 1.447-.041.482-.082.965-.163 1.447 0 .643 0 1.125-.162 1.608zm-.162-7.556l-.163.16c-1.299 1.287-1.948 2.894-2.111 4.663-.162 1.286-.162 2.411.163 3.697 0 1.125.325 2.09.974 3.055.081.16.162.28.243.401h.001c.081.121.162.242.243.402-.974-4.18-.812-8.36.65-12.378zM97.744 7.074h-.974l-.162-4.984c0-.16.162-.322.324-.322h3.735c.324 0 .487.161.487.483v.482c0 .321.162.482.487.482h.649c.325 0 .487-.16.487-.482V.803c0-.32-.162-.481-.487-.481H91.736c-.324 0-.487 0-.487.321v.643c0 .16.163.322.325.322h.487c.487 0 .487.16.487.482v13.504c0 .16-.162.322-.324.322h-.487c-.325 0-.488.16-.488.482v.643c0 .16 0 .322.325.322h6.332c.163 0 .325-.161.325-.483v-.643c0-.321-.162-.482-.487-.482h-.65c-.324 0-.486-.16-.486-.482V8.52h2.76c.324 0 .487-.16.487-.482v-.482c0-.322-.163-.482-.487-.482h-1.624zM94.01 1.768h1.298v13.826H94.01V1.768zm-17.536-.16V14.95c0 .482.162.482.487.482h.487c.325 0 .488.161.488.483v.482c0 .321-.163.482-.488.482h-6.17c-.324 0-.487-.16-.487-.482v-.482c0-.322.163-.483.487-.483h.65c.325 0 .325-.16.325-.321V1.769H69.98c-.325 0-.488.16-.488.482v.482c0 .322-.162.322-.324.322h-.65c-.325 0-.487-.161-.487-.483V.482c0-.321.162-.482.487-.482h12.015c.325 0 .487.16.487.482v1.93c0 .321-.162.482-.487.482h-.65c-.324 0-.486-.161-.486-.483v-.643c0-.16-.163-.321-.325-.321-.812.16-1.624.16-2.598.16zm-2.76 13.986h1.299V1.768h-1.299v13.826zM10.229 2.251v6.43h-.162v6.43c0 .322-.163.483-.487.483h-.488a1.042 1.042 0 01-.127.104c-.11.08-.197.143-.197.378v.483c0 .321.162.482.487.482h10.554c.162 0 .324 0 .324-.322v-2.09c0-.16-.162-.321-.324-.321h-.65c-.162 0-.325.16-.325.322v.643c0 .321-.162.482-.487.482h-3.41c-.324 0-.486-.16-.486-.482V2.09c0-.322.162-.482.487-.482h.487c.324 0 .324 0 .487-.161V.804c0-.322-.163-.482-.487-.482H9.092c-.162 0-.324.16-.324.321v.643c0 .322.162.322.324.322h.65c.325 0 .487.16.487.643zm2.76 13.343H11.69V1.768h1.3v13.826zm75.175-6.913v6.592c0 .321.163.482.488.482h.487c.325 0 .324.16.324.321v.643c0 .322-.162.322-.324.322h-6.332c-.325 0-.325-.16-.325-.322v-.643c0-.321.162-.482.487-.482h.487c.325 0 .487-.16.487-.482V2.09c0-.322-.162-.482-.487-.482h-.65c-.324 0-.487-.161-.487-.322V.643c0-.16.163-.321.325-.321h6.332c.163 0 .325.16.325.321v.804c.325.16.162.16-.162.16h-.65c-.325 0-.325.161-.325.322v6.752zm-1.46-6.913h-1.3v13.826h1.3V1.768zm23.38 13.344V2.09c0-.322 0-.482.487-.482h.487c.325 0 .487 0 .487-.161V.643c0-.16-.162-.321-.325-.321h-6.332c-.162 0-.325.16-.325.321v.643c0 .16.163.322.325.322h.65c.324 0 .487.16.487.482v13.022c0 .321-.163.482-.487.482h-.65c-.325 0-.487.16-.487.482v.483c0 .321.162.482.487.482h6.332c.163 0 .325-.16.325-.322v-.803c0-.161-.162-.322-.325-.322h-.649c-.325 0-.487 0-.487-.482zm-2.76-13.344h1.299v13.826h-1.299V1.768zm25.816 6.913v6.43c0 .241 0 .362.06.422.061.061.183.061.427.061h.649c.163 0 .325.16.325.322v.803c0 .161-.162.322-.325.322h-6.332c-.325 0-.487-.16-.487-.482v-.483c0-.321.162-.482.325-.482h.649c.325 0 .487-.16.487-.482V2.09c0-.322-.162-.482-.324-.482h-.65c-.162 0-.325-.161-.325-.322V.643c0-.16.163-.321.325-.321h6.332c.163 0 .325.16.325.321v.804c-.162.16-.325.16-.487.16h-.649c-.325 0-.325.161-.325.483v6.59zm-2.76 6.913h1.299V1.768h-1.299v13.826zM1.137 26.687v1.286h28.089v-.965c0-.321 0-.321-.325-.321H1.137zm148.726.16h-28.089v1.126h28.089v-1.125zm-49.359 3.537c.163.322.325.643.812.483v-.161h.65c.162 0 .324 0 .162-.322-.974-1.929-1.948-4.019-2.923-6.109-.08 0-.121-.04-.162-.08-.04-.04-.081-.08-.162-.08-.163 0-.325 0-.325.16-.487 1.126-.974 2.09-1.461 3.055a62.814 62.814 0 01-.731 1.608 62.631 62.631 0 00-.73 1.607c-.163.16-.163.322.162.322h.65c.162 0 .324 0 .324-.161 0-.235.087-.385.197-.574.04-.07.084-.144.128-.23.093-.092.133-.132.18-.148.035-.013.075-.013.144-.013h2.111c.487 0 .65 0 .812.483.162 0 .162.16.162.16zm-2.273-2.813c.163-.362.325-.723.487-1.045.325.643.65 1.286.974 2.09h-1.948c.162-.322.325-.683.487-1.045zm16.886 3.296c-.487.16-.649-.161-.812-.483 0-.16-.162-.482-.324-.643-.105-.104-.278-.073-.474-.039a1.87 1.87 0 01-.338.04h-1.949c-.081 0-.122 0-.142.02-.02.02-.02.06-.02.14-.043.086-.087.16-.127.23-.111.19-.198.338-.198.574 0 .16-.162.321-.324.321h-.65c-.325 0-.325-.16-.162-.321a14.53 14.53 0 011.136-2.25 40.98 40.98 0 00.893-1.93c.284-.643.569-1.286.893-1.93 0-.099.062-.137.148-.189a.905.905 0 00.177-.132c.081 0 .122.04.162.08.041.04.082.081.163.081.974 2.09 1.948 4.18 2.922 6.11.163.32 0 .32-.162.32h-.812zm-2.598-4.341a25.71 25.71 0 01-.974 2.09h1.948a25.7 25.7 0 00-.974-2.09zm-42.215 3.858c.163.322.325.643.812.483h.974c.163 0 .325 0 .163-.322-.974-1.929-1.948-4.019-2.923-6.108-.081 0-.122-.041-.162-.081-.04-.04-.081-.08-.163-.08-.162 0-.324 0-.324.16-.244.402-.447.844-.65 1.286-.203.442-.406.884-.65 1.286a62.403 62.403 0 01-.811 1.769 62.837 62.837 0 00-.812 1.768c-.162.16-.162.322.162.322h.65c.162 0 .325 0 .325-.161 0-.235.087-.385.197-.574.04-.07.084-.144.127-.23 0-.08 0-.12.02-.14.02-.02.061-.02.143-.02h2.273c.325 0 .487 0 .487.32 0 0 .162.162.162.322zm-2.273-2.813c.163-.362.325-.724.487-1.045.325.643.65 1.286.975 2.09h-1.949c.163-.322.325-.683.487-1.045zm16.561 2.01h-1.299s-.162 0-.162.16c-.162.322-.325.643-.487.804 0 .16-.162.16-.325.16h-.65c-.324 0-.324-.16-.162-.32.325-.644.61-1.247.893-1.85.285-.602.569-1.205.893-1.848.163-.402.366-.804.569-1.206.203-.402.406-.804.568-1.206 0-.16.162-.16.325-.16.081 0 .122.04.162.08.04.04.081.08.163.08.974 2.09 1.948 4.18 2.922 6.11.163.32 0 .32-.162.32h-.65c-.162 0-.324 0-.324-.16a4.252 4.252 0 00-.128-.23c-.11-.19-.197-.338-.197-.574 0-.16-.162-.16-.162-.16h-1.787zm0-3.055c-.162.322-.324.683-.487 1.045-.162.362-.324.723-.487 1.045h1.949c-.325-.804-.65-1.447-.974-2.09zm-7.144-1.125h.975v5.144c0 .16 0 .24.04.281.04.04.121.04.284.04h.65c.163 0 .244 0 .284-.04.04-.04.04-.12.04-.28V25.4h1.462c.325 0 .325-.161.325-.322v-.643c0-.08 0-.12-.02-.14-.02-.02-.061-.02-.143-.02h-3.897c-.162 0-.244 0-.284.04-.04.04-.04.12-.04.28v.483c0 .16 0 .24.04.281.04.04.121.04.284.04zm12.34 4.34h2.273c.163 0 .325 0 .325.322v.643c0 .08 0 .12-.02.14-.02.02-.06.02-.142.02h-3.41c-.063 0-.102 0-.125-.018-.037-.03-.037-.106-.037-.303v-6.27c0-.16 0-.321.162-.321h.65c.324 0 .324 0 .324.321v5.466zM74.85 24.436v3.055c0 1.125 0 2.09-.162 3.054 0 .322.162.322.325.322h.812c.324 0 .324-.161.324-.322v-6.109c0-.16 0-.24-.04-.28-.04-.041-.121-.041-.284-.041h-.65c-.163 0-.244 0-.284.04-.04.04-.04.12-.04.281zm18.673 3.055v-3.055c0-.16 0-.24.04-.28.04-.041.121-.041.284-.041h.487c.163 0 .245 0 .285.04.04.04.04.12.04.281v6.109c0 .16 0 .24-.04.281-.04.04-.122.04-.285.04h-.65c-.161 0-.324 0-.324-.32V27.49h.163zm-37.67-3.055v6.109c0 .16 0 .24.04.281.041.04.123.04.285.04h.65c.325 0 .325 0 .325-.32v-6.111c0-.321 0-.321-.325-.321h-.65c-.162 0-.244 0-.284.04-.04.04-.04.12-.04.281z" fill="#313030"/></svg>