<svg width="190" height="49" fill="none" xmlns="http://www.w3.org/2000/svg"><path fill-rule="evenodd" clip-rule="evenodd" d="M151.835 32.373c6.637-1.247 26.643-5.006 30.981-2.295.818.655-.316.89-.55.708a.226.226 0 01-.036-.106c.003-.008.006-.017.011-.026-.007.006-.01.015-.011.026-.013.044.002.08.036.106.297.534 2.339 2.245 2.853-.324.192-1.151-.384-2.11-1.343-2.686-4.574-2.991-24.143.63-31.512 1.993-.671.124-1.24.23-1.688.31l-.959.191c-3.455.768-5.374.192-6.333-.767-.576-.576-.768-1.344-.576-2.303v-.192c2.879-.192 5.757-1.343 6.141-3.263 0-.575-.192-.96-.384-1.343-.383-.384-.767-.576-1.151-.767-1.727-.576-3.454.383-4.798 2.11-.384.576-.767 1.152-1.151 1.92-.768 0-1.535 0-2.111-.192-.768-.192-1.535-.384-1.727-.768-.192-.384-.192-.768.192-1.343 0-.096.048-.192.096-.288.048-.096.096-.192.096-.288.191-1.343-.384-1.343-1.536-.576-.384.192-.767.576-1.151.96-1.535 1.535-4.03 4.222-5.182 6.14 0-.793-.051-1.944-.1-3.058-.047-1.041-.092-2.05-.092-2.698v-.768c-.191-.576-.383-.768-.959-.768-.576.192-1.151.768-2.111 1.92-1.919 2.302-5.565 6.332-8.252 6.332-.959 0-1.727-.384-2.111-.96-.108-.107-.155-.275-.21-.47a2.63 2.63 0 00-.174-.489c.384-.192.768-.384.96-.575 1.919-1.344 3.07-2.687 3.646-3.839.192-.575.192-.96.192-1.343-.192-.576-.384-.96-.768-1.151-.384-.192-.959-.384-1.535-.192h-.192a6.618 6.618 0 00-3.838 4.03c-.384.575-.384 1.343-.384 2.11l-2.303 1.152a11.513 11.513 0 01-3.838 1.343c-1.151.192-1.919 0-2.303-.575-.192 0-.192-.192-.192-.192-.191-.384-.191-.768-.191-1.343 0-.587.224-1.173.415-1.674.059-.155.115-.302.16-.438a2.63 2.63 0 00.174-.488c.055-.195.102-.363.21-.471l.043-.1c.542-1.263.7-1.632-.235-1.82-.384 0-.576.193-.959.577-.384.192-.768.575-1.344 1.151-2.686 2.303-4.797 3.838-6.333 4.798-1.343.767-2.494 1.151-3.262 1.151h-.384c-.384-.192-.576-.384-.767-.96-.192-.767-.192-1.534-.192-2.494 0-.576 0-1.343.192-2.111 2.878-3.07 5.757-7.484 7.868-13.242.959-2.686 1.343-5.181 1.343-6.332 0-.576-.192-1.152-.576-1.344-.383-.384-.959-.384-1.535.192-.576.576-1.727 2.303-3.07 5.373-.373.995-.827 1.989-1.256 2.931-.234.513-.46 1.01-.663 1.483a30.47 30.47 0 00-1.08 2.445c-.115.285-.2.498-.264.626-.96 2.303-1.727 4.797-2.11 6.908l-.385.384c-2.302 2.303-4.797 3.838-6.716 4.606-1.92.768-3.263.96-4.03.768-.768-.768-.96-2.111-.576-3.455v-.192c2.687-.575 4.222-1.151 5.181-2.303.576-.575.96-1.727 1.152-2.686.192-.768 0-1.727-.576-2.303-.576-.576-1.343-.576-2.11-.192-.173.172-.423.384-.699.616-.337.285-.712.602-1.029.92-1.151 1.343-2.303 3.07-2.878 4.797-.797.227-1.66.387-2.591.56-.64.119-1.312.243-2.015.4l-.576.094c-1.017.165-2.168.351-3.454.673v-.576c-1.92-10.17-30.705-7.292-31.857-7.1h-.575c.233-.078.466-.187.712-.302.361-.17.75-.352 1.207-.466 4.03-1.535 10.555-4.03 13.625-7.868 1.535-1.919 2.111-4.222 1.92-6.14-.193-.96-.385-1.92-.96-2.496C53.856.91 53.28.333 52.32.141c-1.344-.384-3.07 0-5.374 1.343-.96.576-1.919 1.152-2.686 1.92-1.344.959-2.303 1.919-2.879 2.494-4.03 4.03-7.868 9.595-10.939 14.969-.767 1.535-1.535 2.878-2.302 4.221-.384-2.11-1.152-4.605-2.111-7.1-.768-1.919-1.728-3.454-3.07-4.797-1.728-1.728-4.03-2.879-6.91-3.263-2.686-.384-5.18-.192-7.484 0-2.303.384-4.414.768-5.757 1.152-.225 0-.384.066-.516.12a.688.688 0 01-.252.072c-1.151.383-1.727.575-1.727 1.151 0 .576.384.768.96.96.384 0 .767.192 1.343.575 2.111 1.152 4.414 3.263 6.525 5.374 4.222 4.03 8.252 7.868 11.514 5.565.576-.384.96-.768 1.152-1.343 1.919-4.414-8.06-10.171-12.666-9.212 2.687.192 14.393 5.565 10.555 9.403-2.303 1.536-5.95-1.919-9.596-5.373-.365-.335-.725-.67-1.082-1.001-1.895-1.76-3.697-3.434-5.634-4.564h-.192c1.343-.384 3.262-.768 5.373-.96 2.303-.383 4.606-.383 7.1 0 2.687.384 4.606 1.344 6.142 2.879 1.535 1.343 2.686 3.454 3.454 5.757.96 2.687 1.535 4.99 1.919 7.293-2.303 4.797-4.03 9.403-4.99 12.473-.575 1.92-.575 3.263-.383 4.03.192.576.575.768.96.96.383.192.959 0 1.342-.192.768-.384 1.92-1.535 2.687-3.07 1.343-2.495 2.495-6.141 2.303-10.94 0-.959 0-1.918-.192-2.878a91.182 91.182 0 013.263-5.949c3.07-5.373 6.716-10.555 10.746-14.585.523-.696 1.361-1.393 2.373-2.233l.314-.261c.768-.576 1.535-1.152 2.495-1.728 1.919-1.151 3.262-1.343 4.222-1.151.384 0 .767.384 1.151.768.384.575.576 1.151.576 1.727.192 1.727-.384 3.646-1.535 4.99-2.879 3.454-9.02 5.948-12.858 7.484-.768.384-1.535.767-2.111.96l-1.151.575c-.576.384-.768.767-.768 1.151.192.576.576.768 1.343.96.576.192 1.152.192 2.111.192 0 0 28.594-3.263 30.13 5.757v.576c-.227.045-.475.09-.737.138-.847.155-1.838.336-2.718.63-8.828 2.11-15.736 4.605-20.918 7.1-8.252 4.03-12.474 7.868-14.2 9.979-.768.768-1.152 1.343-1.152 1.343l-.192.384c0 .576.384 1.151.96 1.343.575.192 1.15.192 1.727.192 3.262 0 9.595-2.11 9.979-2.303.02-.02.342-.132.902-.325 4.656-1.613 25.807-8.936 27.692-17.33 1.535-.384 3.07-.767 4.413-.96.914-.114 1.691-.296 2.414-.465.492-.115.958-.224 1.425-.302-.192 1.727 0 3.262 1.151 4.414.096.096.24.144.384.192.144.048.288.096.384.192.96.383 2.686.191 4.99-.768 1.726-.768 4.03-2.111 6.14-4.03v.384c-.192 1.151 0 2.303.192 3.07.384.96.768 1.535 1.727 1.92.192.191.384.191.768.191 1.151.192 2.495-.192 4.222-1.343 1.443-.902 3.056-2.143 5.317-3.884l.44-.338c0 .192-.048.384-.096.576a2.41 2.41 0 00-.096.575c0 .768 0 1.536.384 2.303 0 .192 0 .192.192.384.767 1.151 2.111 1.535 3.646 1.343 1.535-.192 3.07-.767 4.414-1.343.576-.192 1.343-.576 1.919-.96l.576 1.152c.575.96 1.727 1.535 3.262 1.535 3.454 0 7.292-4.414 9.403-6.908.074-.074.147-.119.21-.158.101-.062.174-.108.174-.226.021.29.042.604.063.932.18 2.702.425 6.402 1.28 6.744.576.192 1.152 0 1.344-.96.384-1.535 3.07-4.605 4.989-6.332.096.096.144.24.192.383.048.144.096.288.192.384.384.576 1.344 1.152 2.495 1.344.576.192 1.343.192 2.111.192-.192 1.343 0 2.686.959 3.646 1.152 1.343 3.647 2.11 7.677 1.343.079 0 .192-.033.323-.072.187-.054.411-.12.636-.12l1.067-.2zm34.628.008s0-3.646 2.111-2.495c2.302 1.152-2.111 2.495-2.111 2.495zm-75.611-15.928c0 .96-.192 1.727-.576 1.92-.576.575-1.727.575-2.303-.385-.959-1.343-.192-2.303 1.152-2.686.192 0 .383-.192.767-.576.384-.384.96-.96 1.727-1.92h.001c.767-.767 1.535-1.534 2.302-1.918a9.372 9.372 0 012.111-.768c.284 0 .428 0 .432.023.004.024-.14.072-.432.17-.575.191-1.343.575-2.111 1.15-.767.384-1.535 1.152-2.111 2.111-.575.96-.959 1.92-.959 2.879zm32.432 9.787c.192-.384.384-.767.576-.96.959-1.15 2.111-1.918 3.07-1.535l.384.384v.192c-.192.96-1.919 1.535-4.03 1.92zm-27.13.444c.038-.093.071-.172.071-.252.576-1.343 1.535-2.495 2.879-2.878h.384s-.192.192-.192.383c-.384.768-1.344 1.92-3.071 3.07l-.192.193c0-.225.066-.384.121-.516zm-21.3-6.262c.293-.782.601-1.608.837-2.434.192-.383.576-1.343 1.152-3.07.167-.392.335-.8.508-1.22.42-1.019.867-2.106 1.41-3.194 1.152-2.303 1.92-3.646 2.496-4.414 0 1.152-.576 3.07-1.344 5.373-1.535 4.222-3.454 7.677-5.565 10.363.148-.443.324-.915.507-1.404zm-13.748 4.475c.576-1.151 1.344-2.495 2.111-3.262.365-.366.73-.653.998-.864.154-.122.275-.218.346-.288.192-.192.384-.192.384-.192.192 0 .192.576.192.96-.192.767-.384 1.535-.768 1.919-.576.767-1.535 1.343-3.263 1.727zm-14.968 4.798l2.878-.576c-2.878 8.06-27.442 15.736-27.25 15.544 0 0-6.333 2.303-9.595 2.303h-.96l.768-.768c1.535-1.919 5.757-5.757 13.625-9.595 5.181-2.495 11.898-4.99 20.534-6.909zm-42.22 11.322c.768-2.495 2.112-6.141 3.839-9.98v.385c.192 4.414-.768 7.868-2.111 10.17-.768 1.152-1.536 2.112-2.111 2.495-.192-.575 0-1.535.384-3.07zm44.33 3.454l-.575-.192h.192v-4.99c0-.191.192-.191.192-.191h2.11c.768 0 1.536.576 1.536 1.535 0 .768-.576 1.343-1.152 1.535l.96 1.92s0 .191-.192.191h-.768l-.96-1.919h-1.15v1.92c0 .191-.192.191-.192.191zm.192-4.605v1.919h1.344c.575 0 .96-.384.96-.96s-.576-.96-.96-.96H68.44zm10.363 4.605l-3.07-.192v-4.99c0-.191.192-.191.192-.191h2.878c.192 0 .192.192.192.192v.384c0 .191-.192.191-.192.191h-2.302v1.536h1.918c.192 0 .192.192.192.192v.383c0 .192-.192.192-.192.192h-1.918v1.536h2.302c.192 0 .192.191.192.191v.384c0 .192-.192.192-.192.192zm5.95 0c-.768 0-1.344-.384-1.536-.575-.085-.085-.132-.133-.125-.142.008-.013.103.035.317.142 0-.096.048-.144.096-.192.048-.048.096-.096.096-.192h.192c0 .192.576.575 1.151.575.384 0 .768-.383.768-.767s-.384-.576-1.151-.96c-.768-.192-1.344-.767-1.344-1.535 0-.576.384-1.343 1.535-1.343.768 0 1.344.383 1.344.383v.192l-.192.192h-.192s-.576-.384-.96-.384c-.575 0-.767.384-.767.576 0 .384.384.768.96.96.767.384 1.535.767 1.535 1.727 0 .767-.768 1.343-1.728 1.343zm7.1 0l-.576-.192h-.192v-4.414h-1.151c-.192 0-.192-.191-.192-.191v-.384c0-.192.192-.192.192-.192h3.262c.192 0 .192.192.192.192v.384c0 .191-.192.191-.192.191h-1.151v4.414c0 .192-.192.192-.192.192zm5.181-.192h-.384c-.191 0-.191 0-.383-.192l2.303-4.99h.383l2.303 4.99s0 .192-.192.192h-.383c-.192 0-.192-.192-.192-.192l-.384-.96H97.61c0 .193-.192.577-.384.96 0 .192-.192.192-.192.192zm1.92-3.838l-.96 2.111h1.919l-.96-2.11zm8.251 3.838c-1.151 0-1.919-.767-1.919-1.919h-.192v-3.07c0-.192.192-.192.192-.192h.576c.192 0 .192.192.192.192v3.07c0 .768.384 1.344 1.151 1.344.768 0 1.152-.576 1.152-1.344v-3.07c0-.192.192-.192.192-.192h.575c.192 0 .192.192.192.192v3.07c0 .96-.959 1.92-2.111 1.92zm7.293.192l-.576-.192h.384v-4.99c0-.191.192-.191.192-.191h1.919c.767 0 1.535.576 1.535 1.535 0 .768-.576 1.343-1.151 1.535l.959 1.92s0 .191-.192.191h-.767l-.96-1.919h-1.151v1.92c0 .191-.192.191-.192.191zm.192-4.605v1.919h1.343c.576 0 .96-.384.96-.96s-.384-.96-.96-.96h-1.343zm7.1 4.413h-.384s-.192 0-.383-.192l2.302-4.99h.384l2.303 4.99s0 .192-.192.192h-.384c-.192 0-.192-.192-.192-.192l-.383-.96h-2.495c0 .193-.192.577-.384.96 0 .192-.192.192-.192.192zm1.919-3.838l-.959 2.111h1.919l-.96-2.11zm7.101 4.03l-.576-.192v-4.99c0-.191.192-.191.192-.191h.192l3.262 3.646V39.29c0-.192.192-.192.192-.192h.384c.192 0 .192.192.192.192v4.99c0 .191-.192.191-.192.191h-.192l-3.262-3.838v3.646c0 .192-.192.192-.192.192zm9.595 0l-.576-.192h-.192v-4.414h-1.151c-.192 0-.192-.191-.192-.191v-.384c0-.192.192-.192.192-.192h3.262c.192 0 .192.192.192.192v.384c0 .191-.192.191-.192.191h-1.151v4.414c0 .192-.192.192-.192.192zm9.02-.192h-.192l-2.495-4.99s0-.191.192-.191h.767l1.728 3.646 1.535-3.646h.767c.192 0 .192.192.192.192l-2.303 4.99h-.191zm9.403.192l-3.071-.192v-4.99c0-.191.192-.191.192-.191h2.879c.192 0 .192.192.192.192v.384c0 .191-.192.191-.192.191h-2.303v1.536h1.919c.192 0 .192.192.192.192v.383c0 .192-.192.192-.192.192h-1.919v1.536h2.303c.192 0 .192.191.192.191v.384c0 .192-.192.192-.192.192zm6.717 0c-1.536 0-2.687-1.151-2.687-2.686 0-1.536 1.343-2.687 2.879-2.879.575 0 1.151.384 1.727.768v.191l-.384.384h-.192c-.384-.384-.96-.575-1.343-.575-1.152 0-1.919.96-1.919 1.919 0 .96.959 1.919 1.919 1.919.575 0 1.151-.192 1.151-.192v-.768h-.768c-.191 0-.191-.192-.191-.192v-.383c0-.192.191-.192.191-.192h1.344c.192 0 .192.192.192.192v1.918s-.768.576-1.919.576zm8.635 0c-1.535 0-2.686-1.151-2.686-2.686 0-1.536 1.151-2.687 2.878-2.879.576 0 1.152.384 1.727.768v.191l-.383.384h-.192c-.384-.384-.96-.575-1.344-.575-1.151 0-1.919.96-1.919 1.919 0 .96.768 1.919 1.919 1.919.576 0 1.152-.192 1.152-.192v-.768h-.768c-.192 0-.192-.192-.192-.192v-.383c0-.192.192-.192.192-.192h1.344c.191 0 .191.192.191.192v1.918s-.767.576-1.919.576zm6.909 0l-.576-.192h-.192v-4.99c0-.191.192-.191.192-.191h.576c.192 0 .192.192.192.192v4.99c0 .191-.192.191-.192.191zm7.868 0l-3.07-.192v-4.99c0-.191.192-.191.192-.191h2.878c.192 0 .192.192.192.192v.384c0 .191-.192.191-.192.191h-2.303v1.536h1.919c.192 0 .192.192.192.192v.383c0 .192-.192.192-.192.192h-1.919v1.536h2.303c.192 0 .192.191.192.191v.384c0 .192-.192.192-.192.192z" fill="#313030"/></svg>