<svg width="48" height="48" fill="none" xmlns="http://www.w3.org/2000/svg"><g clip-path="url(#clip0_342_135)"><circle cx="23" cy="25" r="23" fill="#FFE145"/><path d="M25 46a22.93 22.93 0 0011.859-3.292.767.767 0 10-.794-1.313 21.467 21.467 0 11-18.46-38.551.767.767 0 00-.529-1.44C6.603 5.24.392 16.04 2.343 27.024 4.295 38.005 13.845 46.004 25 46zm7.395-43.156a21.48 21.48 0 0110.86 31.459.767.767 0 101.303.808A23.012 23.012 0 0032.924 1.404a.767.767 0 10-.528 1.44z" fill="#B79C10"/><path d="M21.933 14.245v6.479a3.8 3.8 0 002.509 6.056l5.974 5.975.005.007L41.263 43.6a1.533 1.533 0 002.17 0c2.4-2.402.981-5.52-5.422-11.926l-3.253-3.253h-.005l-5.976-5.98a3.799 3.799 0 00-.71-1.717v-6.48a3.822 3.822 0 002.3-3.51V2.3a2.246 2.246 0 00-.795-1.731 2.27 2.27 0 00-3.039.03A2.257 2.257 0 0024.975 0a2.342 2.342 0 00-1.513.598 2.264 2.264 0 00-3.017-.044 2.266 2.266 0 00-.812 1.746v8.433a3.822 3.822 0 002.3 3.512zm9.032 16.882l-4.57-4.57a3.833 3.833 0 002.166-2.166l4.566 4.574-2.162 2.162zm-4.432-11.635a3.78 3.78 0 00-3.066 0v-4.925h3.066v4.925zM22.7 23a2.3 2.3 0 114.6 0 2.3 2.3 0 01-4.6 0zm19.647 19.516l-10.299-10.3 2.168-2.168 2.711 2.71c7.59 7.59 6.232 8.949 5.42 9.758zM21.167 2.3a.767.767 0 01.278-.584.755.755 0 011.035.052.74.74 0 01.22.532v6.133a.767.767 0 001.533 0V2.3a.781.781 0 01.713-.767h.126a.775.775 0 01.695.767v6.133a.767.767 0 101.533 0V2.3a.767.767 0 011.533 0v8.433a2.296 2.296 0 01-1.74 2.229c-.183.05-.37.074-.56.071h-3.066a2.084 2.084 0 01-.578-.076 2.29 2.29 0 01-1.722-2.224V2.3z" fill="#B79C10"/><path d="M18.03 5.96a.767.767 0 00-1.016-.378 19.46 19.46 0 00-1.533.796c-.022.01-.046.01-.067.023-.022.012-.04.038-.063.054a19.167 19.167 0 00-6.879 6.885.7.7 0 00-.07.077.655.655 0 00-.031.09 19.063 19.063 0 00.015 19.033c.008.013.007.03.016.043.008.014.027.035.04.053a19.293 19.293 0 006.94 6.932c.013.009.02.023.035.031a.72.72 0 00.066.028 19.122 19.122 0 0018.527.287.767.767 0 10-.723-1.351 17.601 17.601 0 01-7.52 2.047V39.1a.767.767 0 00-1.534 0v1.514a17.506 17.506 0 01-7.374-1.98l.755-1.307a.767.767 0 10-1.328-.767l-.754 1.303a17.769 17.769 0 01-5.397-5.397l1.303-.754a.767.767 0 10-.766-1.328l-1.304.756a17.504 17.504 0 01-1.982-7.373H8.9a.767.767 0 100-1.534H7.395a17.574 17.574 0 011.98-7.369l1.298.75a.767.767 0 10.767-1.328l-1.303-.753a17.655 17.655 0 015.395-5.399l.754 1.304a.767.767 0 101.328-.767l-.75-1.303c.26-.136.52-.274.788-.397a.767.767 0 00.378-1.011zm22.828 26.378a.767.767 0 001.04-.31 19.058 19.058 0 00-.269-18.522.645.645 0 00-.03-.09.695.695 0 00-.07-.076 19.17 19.17 0 00-6.884-6.885c-.023-.016-.037-.04-.062-.054a.692.692 0 00-.067-.022 18.227 18.227 0 00-1.533-.797.767.767 0 00-.635 1.395c.269.123.528.261.789.397l-.75 1.303a.767.767 0 101.327.767l.754-1.304a17.657 17.657 0 015.395 5.4l-1.303.752a.767.767 0 10.767 1.328l1.298-.75a17.573 17.573 0 011.98 7.363H41.1a.767.767 0 000 1.534h1.51a17.473 17.473 0 01-2.062 7.532.767.767 0 00.31 1.039z" fill="#B79C10"/></g><defs><clipPath id="clip0_342_135"><path fill="#fff" d="M0 0h48v48H0z"/></clipPath></defs></svg>