<svg width="48" height="48" fill="none" xmlns="http://www.w3.org/2000/svg"><g clip-path="url(#clip0_17_2362)"><path fill-rule="evenodd" clip-rule="evenodd" d="M5.477 15a3 3 0 00-2.967 3.44l2.447 16.518A9 9 0 0013 48a9.004 9.004 0 008.488-6h9.024A9.004 9.004 0 0039 48a9 9 0 005.577-16.064l-2.233-9.276A10 10 0 0032.622 15H5.477z" fill="#FFE145"/><path d="M47.25 40.5a6.736 6.736 0 00-3.44-5.867 8.89 8.89 0 00.44-2.75 8.92 8.92 0 00-5.761-8.313l-.239-.09v-1.397c.443.258.951.417 1.5.417h6v-6h-6c-.549 0-1.057.159-1.5.417V16.5a3.76 3.76 0 00-1.54-3.024 2.623 2.623 0 00-2.585-2.226h-9.172a5.985 5.985 0 001.993-3.752h2.302c1.24 0 2.25-1.009 2.25-2.25 0-1.24-1.01-2.25-2.25-2.25h-3.58a5.997 5.997 0 00-4.67-2.25c-3.309 0-6 2.692-6 6a6 6 0 003.022 5.202 6.776 6.776 0 00-3.378 3.8H3C1.76 15.75.75 16.76.75 18v9c0 1.24 1.01 2.25 2.25 2.25h2.333A5.23 5.23 0 003.75 33v1.52a3.732 3.732 0 00-1.5 2.98A3.754 3.754 0 006 41.25h1.576c.349 1.71 1.863 3 3.674 3a3.756 3.756 0 003.674-3h20.402c.349 1.71 1.863 3 3.674 3a3.756 3.756 0 003.674-3h4.576v-.75zm-4.5-8.617a7.329 7.329 0 01-2.161 5.218l-2.65 2.649H35.25V16.237a2.626 2.626 0 001.101-.988c.248.367.399.796.399 1.251v8.02l1.212.454a7.413 7.413 0 014.788 6.91zm-10.588 5.161l-2.132-9.063a5.984 5.984 0 00-4.855-4.545l-.425-.071-.002-6.865h9.002v23.25h-2.028a3.25 3.25 0 00.526-1.778v-.18c0-.248-.029-.5-.086-.748zM44.25 21h-1.5v-3h1.5v3zm-4.5-3h1.5v3h-1.5c-.827 0-1.5-.673-1.5-1.5s.673-1.5 1.5-1.5zM29.998 5.248a.75.75 0 01-.75.75h-6.286l.128-.255a2.239 2.239 0 012.013-1.245h4.145a.75.75 0 01.75.75zm-9-3c1.032 0 2.015.361 2.803.99A3.72 3.72 0 0021.75 5.07l-.464.927h-4.719A4.504 4.504 0 0121 2.247zm-4.432 5.25h8.864a4.503 4.503 0 01-4.432 3.75 4.503 4.503 0 01-4.432-3.75zM15.749 18A5.257 5.257 0 0121 12.748l13.125.002c.62 0 1.125.505 1.125 1.125S34.745 15 34.125 15H20.25v1.5h2.998l.002 8.135 1.68.28a4.487 4.487 0 013.64 3.409l2.131 9.06c.032.136.047.273.047.408v.181c0 .475-.184.921-.52 1.257a1.775 1.775 0 01-2.98-.825l-1.952-7.815a3.745 3.745 0 00-3.638-2.84h-2.16a3.754 3.754 0 01-3.75-3.75v-6zM26.22 39.75h-2.97V33a5.235 5.235 0 00-1.582-3.75 2.248 2.248 0 012.174 1.703l1.953 7.814c.088.357.235.688.426.983zM3 27.75a.75.75 0 01-.75-.75v-9a.75.75 0 01.75-.75h11.293a6.712 6.712 0 00-.044.75v6c0 1.468.608 2.796 1.583 3.75H3zm8.25 15c-.976 0-1.802-.63-2.112-1.5h4.223c-.31.87-1.135 1.5-2.111 1.5zm7.5-3H6c-1.24 0-2.25-1.01-2.25-2.25S4.76 35.25 6 35.25h10.5c1.24 0 2.25 1.01 2.25 2.25v2.25zm-2.25-6H6c-.256 0-.508.026-.75.076V33A3.754 3.754 0 019 29.25h9A3.754 3.754 0 0121.75 33v6.75h-1.5V37.5a3.754 3.754 0 00-3.75-3.75zm22.5 9c-.977 0-1.801-.63-2.112-1.5h4.223c-.31.87-1.134 1.5-2.111 1.5zm1.06-3l1.589-1.589a8.924 8.924 0 001.582-2.143 5.248 5.248 0 012.466 3.732H40.06z" fill="#B79C10"/><path d="M11.25 36.75h1.5v1.5h-1.5v-1.5zm-6 0h1.5v1.5h-1.5v-1.5zm3 0h1.5v1.5h-1.5v-1.5z" fill="#B79C10"/></g><defs><clipPath id="clip0_17_2362"><path fill="#fff" d="M0 0h48v48H0z"/></clipPath></defs></svg>